<svg xmlns="http://www.w3.org/2000/svg" width="130" height="70" fill="none"><path fill="#EF314B" d="M0 12.411C0 5.557 6.554 0 14.64 0h100.72C123.446 0 130 5.557 130 12.411V57.59C130 64.443 123.446 70 115.36 70H14.64C6.554 70 0 64.443 0 57.589V12.41Z"/><path fill="#fff" d="m58.877 21.338-1.124-.549v-3.574c0-1.072-.337-1.859-1.715-3.05-.702-.62-1.574-.906-2.586-.906-.056 0-1.377 0-3.991.024-.534 0-1.152-.047-1.237.524 0 .191-.028.477-.028.834v6.149l-1.124.548c-.14.071-.225.19-.225.333 0 .167.084.262.225.334l1.124.548v6.005c0 .858 0 1.144.225 1.334.084.072.281.143.562.143h.113c5.087 0 6.155.406 7.926-1.834a3.65 3.65 0 0 0 .73-2.24v-3.408l1.125-.548c.14-.072.225-.167.225-.334 0-.143-.084-.262-.225-.333ZM54.436 18v7.912c0 .93-1.321 1.549-2.39 1.215-.533-.19-.505-.667-.505-1.239v-8.745c-.028-.882.31-1.097 1.377-1.025.9.047 1.406.453 1.49 1.239.028.12.028.334.028.643ZM71.093 25.532l-.029-7.888c0-1.263-.365-2.621-1.545-3.55-1.181-.954-2.587-1.216-4.807-.93a2.378 2.378 0 0 0-1.012.381c-1.63 1.001-2.417 2.193-2.361 3.598v8.937c0 .762.14 1.382.478 1.906 1.799 2.86 6.465 3.05 8.685.024.14-.215.253-.405.281-.62.225-.977.31-1.596.31-1.858Zm-3.71.977c-.507.953-2.137.929-2.587-.048-.112-.19-.14-.548-.14-1.025v-7.768c0-.381 0-.62.028-.763.197-1.215 2.277-1.358 2.726-.19.085.238.14.5.14.834v8.054c0 .381-.055.691-.168.906ZM83.34 26.127V14.665c0-.643.057-1.239-.561-1.287-.394-.023-.844-.023-1.321-.023-1.406 0-1.434.023-1.434 1.191V25.08c0 1.096-.197 2.145-1.462 2.335-1.011.12-1.574-.762-1.602-1.382-.028-.262-.028-.572-.028-.93V14.857c0-.882.113-1.43-.646-1.478-.563-.047-2.165-.071-2.474.167-.14.12-.197.477-.197 1.049v11.08c0 .549.113 1.24.338 2.05.112.334.309.643.534.93 1.518 1.667 3.823 2.001 6.184 1.31.168-.048.337-.12.477-.238 1.49-1.001 2.249-2.193 2.193-3.599ZM96.279 24.793c.028-1.192-.366-2.216-1.209-3.026-.45-.453-.45-.644-.056-1.097 1.714-1.93 1.124-5.147-.703-6.481-.9-.644-1.967-.954-3.289-.93-.45.024-1.04.024-1.77.024-2.137-.024-2.755-.071-3.036.167-.112.095-.169.453-.169 1.025V28.51c0 .787 0 1.144.197 1.335.14.119.365.19.675.19 5.34.048 6.605.263 8.235-1.382.76-.762 1.125-1.596 1.097-2.55 0-.548 0-1 .028-1.31Zm-6.634-7.935c.113-.596.45-.787 1.18-.74.76.049 1.237.406 1.462 1.002l.169.715a2.63 2.63 0 0 1-.422 1.453c-.168.238-.421.405-.787.5-1.967.549-1.799-1.763-1.602-2.93Zm2.614 9.58c-.337.523-.927.762-1.799.738-.983-.048-.843-.405-.843-2.169 0-1.62-.112-1.93.647-2.264.787-.31 1.883.239 2.192.978.422.953.337 1.858-.197 2.716ZM107.052 27.796c-.029-.692-.338-.572-2.165-.572-2.417-.048-2.754.166-2.867-.858 0-.167-.028-.477-.028-.953V14.784c0-.905.113-1.43-.674-1.477-.282-.024-.675-.024-1.237-.024-1.377 0-1.406.048-1.406 1.215v14.418c0 1.072.057 1.12 1.321 1.12h5.763c.618 0 1.264.095 1.293-.549a17.05 17.05 0 0 0 0-1.691ZM117.925 27.724c-.085-.548-.647-.477-1.49-.5h-2.755c-.927-.024-1.18-.263-1.236-1.025-.028-.739-.028-1.382.028-1.954.056-1.025.337-1.144 1.405-1.144.815 0 1.462 0 1.883-.024.394-.024.619-.19.619-.524.056-.5.056-1 .028-1.501-.028-.572-.197-.74-.871-.74-.197-.023-.534-.023-.984-.023-.872 0-1.49.024-1.827-.238-.141-.143-.253-.381-.253-.691a21.953 21.953 0 0 1-.028-2.36c.056-.738.309-.977 1.236-1h2.783c.815 0 1.406.047 1.462-.524.056-.549.084-1.74-.169-1.955-.14-.095-.506-.166-1.152-.166h-6.072c-1.377 0-1.405.047-1.405 1.239v13.869c0 .881-.028 1.191.225 1.382.253.19.731.19 1.124.19h6.1c.59 0 1.264.048 1.321-.524a7.591 7.591 0 0 0 .028-1.787ZM57.725 45.664c0-.334-.225-.524-.619-.548a24.831 24.831 0 0 0-1.883 0c-.59 0-.73.167-.787.69v1.311c-.028.882-.759 1.573-1.63 1.526-.872-.048-1.293-.715-1.377-1.311-.057-.286-.057-.596-.057-.93a280.536 280.536 0 0 1 0-6.91c0-.596-.056-1.144.506-1.668a1.442 1.442 0 0 1 1.012-.405c.787 0 1.49.62 1.546 1.525.028 1.501-.112 1.596.675 1.644.59.024 1.152.024 1.742 0 .675 0 .872-.143.9-.715.028-.715.168-2.573-.675-3.431-.927-.93-1.742-1.478-2.417-1.692-.225-.072-.506-.096-.759-.12-.365 0-.956-.023-1.77 0-.282 0-.591.048-.956.167-1.828.572-3.008 2.145-2.952 3.599.056.643.056 1.835.028 3.741l-1.124.548c-.14.095-.225.19-.225.358 0 .142.084.238.225.333l1.124.548v3.908c0 .787.169 1.406.59 1.86 2.896 3.335 8.068 2 8.827-1.335.112-.477.14-1.359.056-2.693ZM70.193 47.475V36.013c0-.644.056-1.24-.563-1.287-.393-.024-.843-.024-1.32-.024-1.406 0-1.434.024-1.434 1.192v10.532c0 1.097-.197 2.145-1.462 2.336-1.012.119-1.574-.763-1.602-1.382-.028-.263-.028-.572-.028-.93V36.203c0-.881.112-1.43-.646-1.477-.563-.048-2.165-.072-2.474.167-.14.119-.197.476-.197 1.048v11.081c0 .548.113 1.24.337 2.05.113.333.31.643.535.929 1.517 1.668 3.822 2.002 6.183 1.31.169-.047.338-.119.478-.238 1.49-1 2.249-2.192 2.193-3.598ZM82.484 38.157c-.281-2.883-3.176-3.502-4.863-3.502H74.39c-1.406 0-1.434.023-1.434 1.191v14.393c0 .572-.056 1.096.619 1.144.871.048 2.248.072 2.501-.143.113-.095.197-.381.197-.81v-3.742c0-.762-.14-1.334.815-1.43.14-.023.562-.047 1.209-.047.506-.024.9-.071 1.18-.167 1.771-.572 2.952-1.906 3.036-3.503v-1.596c0-1.12 0-1.716-.028-1.788Zm-3.148 2.955c-.169.953-1.18 1.55-2.249 1.406-.506-.071-.759-.31-.787-.69v-1.883h-.028c0-1.978-.31-2.526 1.18-2.431 2.08.143 2.137 1.978 1.884 3.598Z"/><path fill="#fff" fill-rule="evenodd" d="M10.136 26.595c-.46.267-.486.556-.47 5.41.014 4.772.053 5.213.572 6.383.306.69.835 1.59 1.177 2.019.389.498 1.049.796 1.753.792l16.668-.093c.537-.003 1.044-.21 1.38-.566.071-.077.134-.159.188-.246l.236-.384a6.574 6.574 0 0 0 .99-3.238l.139-4.297c.074-5.117.046-5.571-.36-5.807-.343-.198-2.594-.256-10.001-.256h-9.56l-1.304 7.047.288-7.047h-.605c-.333 0-.824.127-1.091.282Zm23.178 1.603c0 .863.026.893.764.893 2.57 0 4.302 2.357 3.051 4.154-.556.8-1.848 1.405-2.997 1.405-.806 0-.818.013-.818.92v.922l1.235-.116c1.41-.133 2.895-.679 3.696-1.36.851-.724 1.569-2.162 1.575-3.156.007-1.139-1-2.799-2.104-3.465-.96-.58-2.682-1.09-3.682-1.09-.686 0-.72.041-.72.893Z" clip-rule="evenodd"/></svg>