<svg xmlns="http://www.w3.org/2000/svg" width="45" height="48" fill="none"><g clip-path="url(#a)"><path fill="#2566AF" d="M19.982 30.335h-3.09l1.931-12.661h3.09l-1.931 12.66Zm-5.69-12.661-2.946 8.708-.349-1.875-1.04-5.693s-.125-1.14-1.465-1.14h-4.87l-.058.214s1.49.33 3.233 1.447l2.685 11h3.22l4.916-12.661h-3.326Zm24.306 12.66h2.838l-2.474-12.66h-2.484c-1.148 0-1.427.943-1.427.943l-4.609 11.718h3.222l.644-1.88h3.928l.362 1.88Zm-3.4-4.478 1.623-4.738.914 4.738h-2.537Zm-4.514-5.137.44-2.72s-1.36-.551-2.778-.551c-1.534 0-5.176.715-5.176 4.191 0 3.271 4.274 3.312 4.274 5.03 0 1.718-3.833 1.41-5.099.326l-.459 2.843s1.38.715 3.488.715c2.109 0 5.29-1.165 5.29-4.334 0-3.292-4.312-3.599-4.312-5.03s3.01-1.248 4.332-.47Z"/><path fill="#E6A540" d="m10.998 24.507-1.04-5.694s-.126-1.14-1.466-1.14h-4.87l-.058.215s2.341.517 4.587 2.456c2.146 1.854 2.847 4.163 2.847 4.163Z"/></g><defs><clipPath id="a"><path fill="#fff" d="M0 0h45v48H0z"/></clipPath></defs></svg>