<svg xmlns="http://www.w3.org/2000/svg" width="40" height="40" fill="none"><circle cx="20" cy="20" r="19.5" stroke="#EF314B"/><path fill="#EF314B" d="M28.296 11.159s1.85-.78 1.695 1.113c-.051.779-.514 3.506-.873 6.456l-1.234 8.737s-.103 1.28-1.028 1.503c-.925.222-2.312-.78-2.57-1.002-.205-.167-3.854-2.672-5.138-3.896-.36-.334-.772-1.001.051-1.78l5.396-5.566c.616-.668 1.233-2.226-1.336-.334l-7.196 5.287s-.822.557-2.363.056l-3.341-1.113s-1.234-.835.873-1.67c5.14-2.615 11.461-5.286 17.063-7.791Z"/></svg>