<svg width="20" height="26" fill="none" xmlns="http://www.w3.org/2000/svg"><path d="M18.333 8.667H15v-2.89c0-1.532-.527-3.001-1.464-4.085C12.598.61 11.326 0 10 0S7.402.609 6.464 1.692C5.527 2.776 5 4.245 5 5.778v2.889H1.667c-.442 0-.866.203-1.179.564A2.088 2.088 0 0 0 0 10.593v13.481c0 .51.176 1 .488 1.362.313.361.737.564 1.179.564h16.666c.442 0 .866-.203 1.179-.564.312-.361.488-.851.488-1.362V10.593c0-.511-.176-1.001-.488-1.362-.313-.361-.737-.564-1.179-.564ZM6.667 5.777c0-1.02.35-2 .976-2.723.625-.722 1.473-1.128 2.357-1.128.884 0 1.732.406 2.357 1.128.625.722.976 1.702.976 2.724v2.889H6.667v-2.89Z" fill="#000"/></svg>