<?xml version="1.0" standalone="no"?>
<!DOCTYPE svg PUBLIC "-//W3C//DTD SVG 20010904//EN"
 "http://www.w3.org/TR/2001/REC-SVG-20010904/DTD/svg10.dtd">
<svg version="1.0" xmlns="http://www.w3.org/2000/svg"
 width="159.000000pt" height="159.000000pt" viewBox="0 0 159.000000 159.000000"
 preserveAspectRatio="xMidYMid meet">
<metadata>
Created by potrace 1.14, written by Peter Selinger 2001-2017
</metadata>
<g transform="translate(0.000000,159.000000) scale(0.100000,-0.100000)"
fill="#000000" stroke="none">
<path d="M210 1434 c-82 -45 -140 -101 -179 -174 l-31 -58 0 -396 0 -397 25
-50 c53 -104 136 -170 269 -213 l79 -26 416 0 c410 0 417 0 493 24 142 44 235
123 282 241 l26 65 0 355 0 355 -27 67 c-34 86 -111 165 -203 211 l-65 32
-510 -1 -510 0 -65 -35z m131 -466 l2 -83 15 83 15 82 296 -2 296 -3 0 -180
c0 -170 -1 -182 -23 -216 l-22 -37 -265 -7 c-300 -8 -309 -7 -346 58 -22 39
-24 55 -27 200 -4 165 1 187 39 187 17 0 19 -9 20 -82z m734 41 c22 -6 54 -26
72 -46 82 -87 5 -213 -129 -213 -23 0 -28 4 -28 25 0 18 5 25 20 25 68 0 119
54 100 105 -11 29 -65 65 -97 65 -18 0 -23 6 -23 25 0 29 20 32 85 14z"/>
</g>
</svg>
