<svg xmlns="http://www.w3.org/2000/svg" width="24" height="31" fill="none"><path fill="#fff" d="M22.881 12.587a2.03 2.03 0 0 1-1.495.554 2.198 2.198 0 0 1-1.496-.602l-5.827-5.442v21.477c0 .546-.198 1.003-.594 1.373-.396.37-.886.554-1.469.553-.585 0-1.075-.185-1.47-.555a1.795 1.795 0 0 1-.593-1.371V7.097l-5.879 5.49a2.082 2.082 0 0 1-1.47.578 2.075 2.075 0 0 1-1.47-.578C.707 12.2.5 11.744.5 11.213c0-.53.206-.987.619-1.371l9.437-8.812c.206-.193.43-.33.67-.41.241-.081.499-.121.774-.12.275 0 .533.04.774.121.24.081.464.217.67.409l9.489 8.86c.378.353.567.794.567 1.323 0 .53-.206.987-.619 1.374Z"/></svg>