<?xml version="1.0" standalone="no"?>
<!DOCTYPE svg PUBLIC "-//W3C//DTD SVG 20010904//EN"
 "http://www.w3.org/TR/2001/REC-SVG-20010904/DTD/svg10.dtd">
<svg version="1.0" xmlns="http://www.w3.org/2000/svg"
 width="1040.000000pt" height="1040.000000pt" viewBox="0 0 1040.000000 1040.000000"
 preserveAspectRatio="xMidYMid meet">
<metadata>
Created by potrace 1.14, written by Peter Selinger 2001-2017
</metadata>
<g transform="translate(0.000000,1040.000000) scale(0.100000,-0.100000)"
fill="#000000" stroke="none">
<path d="M1020 7993 c-21 -3 -142 -26 -200 -37 -8 -2 -24 -6 -35 -10 -11 -5
-61 -23 -111 -42 -107 -40 -234 -115 -319 -187 -153 -129 -243 -257 -311 -442
-44 -122 -43 -69 -43 -2070 0 -1635 2 -1901 15 -1970 8 -44 19 -89 23 -100 5
-11 19 -46 31 -77 12 -32 35 -78 51 -103 16 -25 29 -50 29 -55 0 -6 4 -10 8
-10 4 0 15 -12 24 -27 22 -37 133 -151 183 -188 22 -17 46 -36 53 -42 44 -42
284 -159 365 -178 12 -3 63 -15 112 -27 l90 -23 4190 0 c2305 0 4215 4 4246 8
31 4 71 12 88 17 17 5 32 9 34 8 7 -1 102 27 161 48 100 36 269 131 336 190
57 50 148 145 180 190 78 104 149 264 168 375 4 24 7 913 7 1974 l0 1930 -23
80 c-61 211 -214 424 -382 535 -12 8 -28 20 -34 26 -38 36 -346 177 -346 158
0 -2 -17 2 -37 10 -21 8 -45 15 -53 15 -8 0 -51 7 -95 15 -69 13 -631 15
-4230 14 -2282 0 -4161 -3 -4175 -5z"/>
</g>
</svg>
