<svg xmlns="http://www.w3.org/2000/svg" width="26" height="26" fill="none"><path fill="#fff" d="m24.688 6-1.425 7.835a1.875 1.875 0 0 1-1.845 1.54H6.705L5 6h19.688Z"/><path fill="#fff" d="M25.095 5.024a.937.937 0 0 0-.72-.337H5.47L4.897 1.54A1.875 1.875 0 0 0 3.053 0H.938a.938.938 0 0 0 0 1.875h2.109l2.995 16.44c.088.488.304.943.625 1.32a3.281 3.281 0 1 0 5.203.99h5.323a3.28 3.28 0 1 0 2.964-1.875H8.808a.937.937 0 0 1-.922-.77l-.372-2.043H21.11a2.813 2.813 0 0 0 2.767-2.31L25.3 5.794a.939.939 0 0 0-.206-.77ZM10.313 22.03a1.406 1.406 0 1 1-2.813 0 1.406 1.406 0 0 1 2.813 0Zm11.25 0a1.406 1.406 0 1 1-2.813 0 1.406 1.406 0 0 1 2.813 0Zm.468-8.738a.937.937 0 0 1-.925.77H7.173l-1.363-7.5h17.44l-1.22 6.73Z"/></svg>