<svg width="30" height="30" viewBox="0 0 30 30" fill="none" xmlns="http://www.w3.org/2000/svg">
<path d="M15 30C23.2843 30 30 23.2843 30 15C30 6.71573 23.2843 0 15 0C6.71573 0 0 6.71573 0 15C0 23.2843 6.71573 30 15 30Z" fill="#FF8C00"/>
<path d="M21.1781 18.2297C21.2259 18.6056 21.1191 18.7509 21 18.7509C20.8809 18.7509 20.7141 18.6056 20.5359 18.315C20.3578 18.0244 20.2856 17.6962 20.3813 17.5275C20.4403 17.4178 20.5716 17.3691 20.7263 17.43C21.0356 17.5519 21.1547 18.0234 21.1781 18.2297ZM19.5122 19.0547C19.8806 19.3697 19.9884 19.7325 19.7972 19.9997C19.7371 20.0698 19.6623 20.1257 19.5779 20.1633C19.4936 20.201 19.402 20.2194 19.3097 20.2172C19.1042 20.2192 18.905 20.1458 18.75 20.0109C18.4172 19.7203 18.3216 19.2356 18.5353 18.9694C18.5809 18.9129 18.6393 18.8681 18.7057 18.8386C18.772 18.8091 18.8444 18.7957 18.9169 18.7997C19.1072 18.7997 19.3219 18.8841 19.5122 19.0537V19.0547ZM6.5625 13.9631C6.5625 9.35719 10.2281 5.625 14.7506 5.625C19.2741 5.625 22.9397 9.35812 22.9397 13.9631C22.9398 15.4663 22.5416 16.9426 21.7856 18.2419C21.7613 18.2784 21.7013 18.2662 21.69 18.2175C21.405 16.1691 20.1788 15.0422 18.3938 14.7028C18.2381 14.6784 18.2147 14.5809 18.4172 14.5575C18.9647 14.5087 19.7381 14.5209 20.1422 14.5941C20.1669 14.3806 20.1791 14.1658 20.1788 13.9509C20.1788 10.9087 17.7506 8.43656 14.7628 8.43656C11.7759 8.43656 9.34781 10.9087 9.34781 13.9509C9.34781 16.9941 11.7759 19.4662 14.7628 19.4662H15.0131C14.9281 18.9741 14.892 18.4748 14.9053 17.9756C14.9175 17.6362 14.9897 17.5875 15.1322 17.8537C15.8822 19.1756 16.9528 20.3634 19.0481 20.835C20.7619 21.2241 22.4756 21.6722 24.3206 24.06C24.4866 24.2662 24.2372 24.4837 24.0469 24.3141C22.1663 22.6172 20.4525 22.0594 18.8934 22.0594C17.1431 22.0725 15.9534 22.3031 14.7506 22.3031C10.2281 22.3031 6.5625 18.5681 6.5625 13.9622V13.9631Z" fill="white"/>
</svg>
