<svg xmlns="http://www.w3.org/2000/svg" width="40" height="40" fill="none"><circle cx="20" cy="20" r="19.5" stroke="#EF314B"/><path fill="#EF314B" fill-rule="evenodd" d="M19.27 26.912h1.515s.455-.074.682-.296c.227-.222.227-.666.227-.666s0-1.924.91-2.22c.91-.296 2.122 1.924 3.335 2.738.909.666 1.591.518 1.591.518l3.335-.074s1.743-.074.91-1.48c-.077-.074-.455-.962-2.502-2.812-2.122-1.924-1.819-1.554.682-4.884 1.516-1.998 2.122-3.182 1.97-3.774-.15-.518-1.288-.37-1.288-.37h-3.789s-.303-.074-.455.074c-.227.148-.303.37-.303.37s-.606 1.554-1.364 2.886c-1.667 2.738-2.35 2.886-2.577 2.738-.606-.37-.455-1.628-.455-2.442 0-2.664.455-3.774-.833-4.07-.38-.074-.682-.148-1.743-.148-1.364 0-2.501 0-3.108.296-.454.222-.758.666-.53.666.227 0 .834.148 1.137.518.303.666.303 1.776.303 1.776s.227 3.182-.53 3.552c-.531.296-1.213-.296-2.73-2.812-.757-1.258-1.363-2.738-1.363-2.738s-.076-.296-.303-.444c-.228-.148-.607-.222-.607-.222H7.825s-.53 0-.758.222c-.151.222 0 .592 0 .592s2.805 6.364 5.988 9.62c2.955 3.108 6.214 2.886 6.214 2.886Z" clip-rule="evenodd"/></svg>