<svg xmlns="http://www.w3.org/2000/svg" width="46" height="48" fill="none"><path fill="#D9222A" d="M26.762 24c0 6.101-4.637 11.046-10.357 11.046S6.05 30.101 6.05 24c0-6.1 4.637-11.046 10.356-11.046 5.72 0 10.357 4.946 10.357 11.046Z"/><path fill="#EE9F2D" d="M30.308 12.954c-2.675 0-5.113 1.082-6.951 2.86-.375.361-.724.752-1.046 1.168h2.092c.287.372.55.762.79 1.17H21.52c-.22.377-.42.767-.596 1.17h4.864c.167.38.313.77.439 1.17h-5.742c-.12.383-.22.773-.3 1.169h6.342a11.821 11.821 0 0 1-.3 5.848h-5.742c.125.398.271.79.439 1.17h4.864c-.177.402-.376.793-.597 1.17h-3.67c.239.407.502.798.789 1.169h2.092c-.322.416-.671.808-1.046 1.17 1.838 1.776 4.276 2.858 6.952 2.858 5.72 0 10.356-4.945 10.356-11.046 0-6.1-4.637-11.046-10.356-11.046"/><path fill="#000" d="M39.284 30.158c0-.197.15-.357.335-.357.184 0 .334.16.334.357 0 .197-.15.357-.334.357-.185 0-.335-.16-.335-.357Zm.335.27c.14 0 .254-.12.254-.27 0-.15-.114-.271-.254-.271s-.254.12-.254.27c0 .15.113.272.253.272Zm-.045-.114h-.069v-.313h.124c.026 0 .052 0 .075.015a.097.097 0 0 1 .038.08c0 .034-.02.067-.051.08l.054.138h-.076l-.045-.124h-.05v.124Zm0-.177h.038c.014 0 .029 0 .041-.007a.044.044 0 0 0 .017-.035.04.04 0 0 0-.016-.032c-.012-.008-.031-.007-.044-.007h-.036v.08ZM13.987 25.21a1.748 1.748 0 0 0-.251-.019c-.637 0-.96.233-.96.694 0 .283.158.464.403.464.458 0 .788-.465.808-1.14Zm.818 2.03h-.932l.021-.472c-.284.373-.663.55-1.178.55-.61 0-1.027-.507-1.027-1.244 0-1.11.727-1.757 1.974-1.757.127 0 .29.012.458.035.035-.15.044-.214.044-.295 0-.302-.196-.415-.721-.415a3.517 3.517 0 0 0-1.19.205l.156-1.025c.56-.175.93-.24 1.345-.24.966 0 1.477.462 1.476 1.335.002.234-.034.523-.09.903-.098.66-.308 2.075-.336 2.42Zm-3.586 0h-1.125l.644-4.307L9.3 27.24h-.766l-.095-4.283-.676 4.283H6.71l.88-5.603h1.616l.098 3.136.986-3.136h1.798l-.87 5.603Zm20.479-2.03a1.738 1.738 0 0 0-.251-.019c-.637 0-.96.233-.96.694 0 .283.158.464.403.464.458 0 .789-.465.808-1.14Zm.818 2.03h-.932l.021-.472c-.284.373-.663.55-1.178.55-.61 0-1.027-.507-1.027-1.244 0-1.11.727-1.757 1.974-1.757.128 0 .29.012.458.035.035-.15.044-.214.044-.295 0-.302-.196-.415-.721-.415a3.522 3.522 0 0 0-1.19.205l.156-1.025c.56-.175.93-.24 1.345-.24.966 0 1.477.462 1.476 1.335.002.234-.034.523-.09.903-.098.66-.308 2.075-.336 2.42ZM19.8 27.17a2.423 2.423 0 0 1-.808.148c-.574 0-.888-.352-.888-1-.008-.202.083-.732.154-1.215.065-.426.488-3.11.488-3.11h1.117l-.13.69h.674l-.152 1.095h-.677c-.13.867-.315 1.946-.317 2.09 0 .234.117.337.385.337a.859.859 0 0 0 .303-.043L19.8 27.17Zm3.427-.036a3.597 3.597 0 0 1-1.147.185c-1.251-.002-1.904-.699-1.904-2.033 0-1.558.83-2.705 1.956-2.705.922 0 1.51.642 1.51 1.65 0 .333-.04.66-.138 1.12H21.28c-.075.661.321.937.971.937.4 0 .761-.088 1.162-.287l-.186 1.133Zm-.629-2.702c.006-.095.119-.813-.52-.813-.356 0-.61.29-.714.813H22.6Zm-7.12-.308c0 .576.262.974.856 1.272.456.228.526.296.526.503 0 .284-.2.412-.646.412-.335 0-.647-.056-1.007-.18l-.155 1.053c.256.06.484.114 1.17.135 1.187 0 1.735-.482 1.735-1.523 0-.627-.23-.994-.793-1.27-.471-.231-.525-.283-.525-.495 0-.247.186-.372.55-.372.22 0 .522.025.807.068l.16-1.057a7.16 7.16 0 0 0-.989-.089c-1.258 0-1.693.701-1.689 1.543ZM28.696 22.7c.312 0 .603.088 1.004.303l.184-1.216c-.165-.07-.744-.474-1.235-.474-.753 0-1.389.398-1.836 1.055-.653-.23-.92.236-1.25.7l-.292.072c.022-.152.042-.304.036-.458h-1.033c-.141 1.41-.39 2.839-.587 4.251l-.05.306h1.124c.188-1.3.29-2.134.353-2.698l.424-.251c.063-.251.261-.336.658-.326-.053.308-.08.621-.08.935 0 1.49.755 2.419 1.965 2.419.312 0 .58-.044.994-.164l.197-1.277c-.372.195-.678.287-.955.287-.654 0-1.049-.514-1.049-1.365 0-1.234.588-2.099 1.428-2.099Z"/><path fill="#fff" d="M11.542 26.907h-1.124l.644-4.307-1.438 4.307h-.766l-.095-4.282-.677 4.282H7.034l.88-5.603H9.53l.045 3.469 1.09-3.469h1.747l-.87 5.603Z"/><path fill="#000" d="m38.214 21.637-.25 1.619c-.307-.432-.637-.744-1.073-.744-.567 0-1.084.459-1.422 1.134-.47-.104-.957-.28-.957-.28v.003c.038-.377.053-.607.05-.686h-1.033c-.141 1.41-.391 2.839-.586 4.251l-.052.306h1.125c.152-1.052.268-1.925.354-2.618.384-.37.576-.694.964-.672a4.131 4.131 0 0 0-.272 1.478c0 1.14.54 1.89 1.357 1.89.412 0 .728-.15 1.037-.502l-.053.424h1.064l.856-5.603h-1.109Zm-1.406 4.55c-.383 0-.576-.302-.576-.898 0-.896.362-1.53.872-1.53.386 0 .595.313.595.892 0 .903-.367 1.536-.89 1.536Z"/><path fill="#fff" d="M14.31 24.878a1.758 1.758 0 0 0-.25-.019c-.638 0-.96.233-.96.694 0 .283.158.464.403.464.458 0 .788-.465.807-1.14Zm.818 2.03h-.931l.021-.472c-.284.372-.663.55-1.178.55-.61 0-1.027-.507-1.027-1.244 0-1.11.726-1.757 1.974-1.757.127 0 .29.013.458.035.035-.15.044-.214.044-.295 0-.303-.196-.415-.721-.415a3.547 3.547 0 0 0-1.19.205l.155-1.024c.56-.176.93-.242 1.346-.242.965 0 1.477.463 1.476 1.336.002.235-.035.524-.091.903-.098.66-.307 2.075-.336 2.42Zm15.08-5.452-.184 1.216c-.401-.215-.692-.303-1.004-.303-.84 0-1.428.865-1.428 2.1 0 .85.395 1.364 1.049 1.364.277 0 .582-.092.955-.288l-.197 1.277c-.415.12-.682.165-.994.165-1.21 0-1.965-.929-1.965-2.42 0-2.002 1.042-3.402 2.532-3.402.491 0 1.071.222 1.236.29Zm1.814 3.422a1.755 1.755 0 0 0-.25-.019c-.638 0-.96.233-.96.694 0 .283.157.464.402.464.459 0 .789-.465.808-1.14Zm.818 2.03h-.932l.022-.472c-.284.372-.664.55-1.178.55-.61 0-1.028-.507-1.028-1.244 0-1.11.727-1.757 1.974-1.757.128 0 .291.013.458.035.035-.15.044-.214.044-.295 0-.303-.195-.415-.72-.415a3.548 3.548 0 0 0-1.19.205l.155-1.024c.56-.176.93-.242 1.345-.242.966 0 1.478.463 1.476 1.336.002.235-.034.524-.09.903-.098.66-.308 2.075-.336 2.42Zm-12.715-.07a2.427 2.427 0 0 1-.808.149c-.574 0-.888-.353-.888-1.002-.008-.201.083-.73.154-1.214.065-.426.488-3.11.488-3.11h1.117l-.13.69h.573l-.152 1.095h-.576c-.13.867-.315 1.946-.317 2.09 0 .235.118.336.385.336a.858.858 0 0 0 .303-.042l-.149 1.009Zm3.427-.036a3.602 3.602 0 0 1-1.147.185c-1.251-.002-1.903-.699-1.903-2.033 0-1.558.83-2.705 1.955-2.705.922 0 1.51.642 1.51 1.65 0 .334-.04.66-.137 1.12h-2.226c-.075.661.322.937.972.937.4 0 .76-.088 1.161-.288l-.185 1.134Zm-.629-2.702c.007-.095.12-.814-.52-.814-.355 0-.61.29-.714.814h1.234Zm-7.12-.308c0 .576.262.973.856 1.272.456.228.526.296.526.503 0 .284-.201.412-.646.412-.335 0-.647-.056-1.007-.18 0 0-.148 1.005-.154 1.053.255.06.483.114 1.17.135 1.186 0 1.734-.482 1.734-1.523 0-.627-.23-.994-.793-1.27-.471-.232-.526-.282-.526-.495 0-.246.188-.373.55-.373.221 0 .523.026.809.07l.16-1.058a7.154 7.154 0 0 0-.99-.089c-1.258 0-1.693.7-1.69 1.543Zm22.987 3.115h-1.063l.053-.424c-.309.352-.625.504-1.037.504-.817 0-1.357-.752-1.357-1.891 0-1.516.837-2.794 1.829-2.794.436 0 .766.19 1.073.622l.25-1.62h1.109l-.857 5.603Zm-1.658-1.052c.524 0 .891-.633.891-1.536 0-.579-.209-.893-.595-.893-.51 0-.872.635-.872 1.53 0 .597.193.899.576.899Zm-3.28-3.504c-.14 1.41-.39 2.839-.586 4.25l-.051.306h1.124c.403-2.786.5-3.33 1.13-3.262.101-.57.288-1.07.427-1.321-.47-.105-.734.179-1.078.718.027-.233.077-.46.067-.69h-1.032Zm-9.254 0c-.142 1.41-.392 2.839-.587 4.25l-.051.306h1.125c.402-2.786.499-3.33 1.129-3.262.1-.57.288-1.07.427-1.321-.47-.105-.734.179-1.078.718.027-.233.077-.46.067-.69h-1.032Zm14.686 4.2c0-.197.15-.357.334-.357.185 0 .335.159.335.356 0 .198-.15.357-.334.357-.185 0-.335-.16-.335-.356Zm.335.27c.14 0 .254-.12.254-.27 0-.15-.114-.271-.254-.271s-.255.121-.255.27c0 .15.114.272.255.272Zm-.045-.114h-.069v-.313h.124c.026 0 .053 0 .075.016a.097.097 0 0 1 .038.078c0 .035-.02.068-.051.081l.054.138h-.076l-.045-.124h-.05v.124Zm0-.178h.037c.014 0 .03.002.042-.006a.044.044 0 0 0 .017-.036.041.041 0 0 0-.016-.032c-.012-.007-.032-.005-.044-.005h-.036v.08Z"/></svg>