<svg xmlns="http://www.w3.org/2000/svg" width="65" height="48" fill="none"><g clip-path="url(#a)"><path fill="#4AB838" d="M45.558 23.088v10.368h4.945v-6.144h5.604c2.357-.02 4.36-1.776 5.118-4.224H45.558Z"/><path fill="url(#b)" d="M44.898 14.544c.289 4.233 3.734 7.584 7.937 7.584h8.596c.066-.384.1-.787.1-1.2 0-3.514-2.432-6.355-5.44-6.384H44.898Z"/><path fill="#4AB838" d="M37.58 22.022c.057-.115.148-.182.263-.182.165 0 .289.154.297.336V33.36h4.945V14.544H38.14c-.626.029-1.335.557-1.599 1.22l-3.931 9.83a.647.647 0 0 1-.041.115.32.32 0 0 1-.272.163c-.182 0-.33-.173-.33-.384V14.544h-4.945V33.36h4.945c.618-.038 1.31-.566 1.574-1.22l4.039-10.089c-.009-.01 0-.02 0-.029ZM19.118 22.349 16.225 33.36h-3.56L9.78 22.34c-.024-.174-.156-.308-.321-.308-.182 0-.322.173-.322.374V33.35H4.192V14.534h5.505c.907 0 1.864.826 2.127 1.834l2.407 9.168c.123.46.313.451.437 0l2.406-9.168c.264-1.018 1.22-1.834 2.127-1.834h5.505V33.35h-4.945V22.396c0-.21-.148-.374-.321-.374-.165.01-.297.144-.322.327Z"/></g><defs><linearGradient id="b" x1="44.9" x2="61.529" y1="18.336" y2="18.336" gradientUnits="userSpaceOnUse"><stop stop-color="#00A0E5"/><stop offset="1" stop-color="#0077C3"/></linearGradient><clipPath id="a"><path fill="#fff" d="M.714 0H65v48H.714z"/></clipPath></defs></svg>